<svg width="24" height="24" viewBox="0 0 24 24" fill="none" xmlns="http://www.w3.org/2000/svg">
  <defs>
    <linearGradient id="face_id_gradient" x1="0" y1="12" x2="24" y2="12" gradientUnits="userSpaceOnUse">
      <stop offset="0" stop-color="@fill"/>
      <stop offset="1" stop-color="@fill2"/>
    </linearGradient>
  </defs>
  <!-- Top left corner -->
  <path d="M1 7V3C1 1.89543 1.89543 1 3 1H7" stroke="url(#face_id_gradient)" stroke-width="2" stroke-linecap="round"/>
  <!-- Top right corner -->
  <path d="M17 1H21C22.1046 1 23 1.89543 23 3V7" stroke="url(#face_id_gradient)" stroke-width="2" stroke-linecap="round"/>
  <!-- Bottom left corner -->
  <path d="M1 17V21C1 22.1046 1.89543 23 3 23H7" stroke="url(#face_id_gradient)" stroke-width="2" stroke-linecap="round"/>
  <!-- Bottom right corner -->
  <path d="M17 23H21C22.1046 23 23 22.1046 23 21V17" stroke="url(#face_id_gradient)" stroke-width="2" stroke-linecap="round"/>
  <!-- Left eye (vertical dash) -->
  <path d="M7.5 8V11" stroke="url(#face_id_gradient)" stroke-width="1.8" stroke-linecap="round"/>
  <!-- Right eye (vertical dash) -->
  <path d="M16.5 8V11" stroke="url(#face_id_gradient)" stroke-width="1.8" stroke-linecap="round"/>
  <!-- Nose - shorter vertical line curving to LEFT at bottom -->
  <path d="M12 10V13Q12 14.5 10.5 14.5" stroke="url(#face_id_gradient)" stroke-width="1.5" stroke-linecap="round" fill="none"/>
  <!-- Mouth/smile -->
  <path d="M8.5 19Q12 22 15.5 19" stroke="url(#face_id_gradient)" stroke-width="1.5" stroke-linecap="round" fill="none"/>
</svg>
