<svg width="45" height="47" viewBox="0 0 45 47" fill="none" xmlns="http://www.w3.org/2000/svg">
<g filter="url(#filter0_dd_1778_4441)">
<path d="M34.0957 7.68184C33.9731 8.13543 33.7567 8.55848 33.4604 8.92384C32.7751 9.65073 31.901 10.1741 30.9351 10.4358C30.8206 10.4634 30.7145 10.5183 30.626 10.5958C30.5225 10.7414 30.4722 10.9178 30.4835 11.0958C30.4551 11.6837 30.2545 12.2504 29.9064 12.7258C29.7334 12.9579 29.5075 13.1456 29.2472 13.2734C28.987 13.4012 28.7 13.4655 28.4099 13.4608C28.1477 13.431 27.8898 13.3716 27.6411 13.2838C25.8666 12.7943 24.0452 12.4926 22.2072 12.3838C21.0936 12.3584 19.9918 12.15 18.9463 11.7668C18.0269 11.3668 16.8727 10.4158 16.957 9.30083C16.9188 7.97574 17.0452 6.65102 17.3334 5.35683C17.4499 5.01888 17.5977 4.69247 17.775 4.38184C13.4896 5.43729 9.69238 7.91448 7.00786 11.406C4.32334 14.8974 2.91141 19.1952 3.00431 23.5925C3.09721 27.9897 4.68941 32.2246 7.51902 35.6004C10.3486 38.9762 14.2471 41.292 18.5733 42.1668C22.8995 43.0417 27.3957 42.4235 31.3223 40.4139C35.249 38.4044 38.3723 35.1231 40.1785 31.1099C41.9847 27.0967 42.3662 22.5905 41.2603 18.3326C40.1544 14.0746 37.627 10.3184 34.0937 7.68184H34.0957ZM22.5083 33.4258C20.5074 33.4534 18.5434 32.8874 16.8662 31.7999C15.189 30.7123 13.8743 29.1523 13.0893 27.3182C12.3044 25.4842 12.0847 23.459 12.4581 21.5002C12.8315 19.5414 13.7812 17.7375 15.1864 16.318C16.5916 14.8984 18.3889 13.9273 20.3495 13.5282C22.3101 13.1291 24.3456 13.32 26.1971 14.0767C28.0485 14.8333 29.6323 16.1215 30.7469 17.7774C31.8616 19.4332 32.4567 21.382 32.4567 23.3758C32.4743 26.0227 31.4363 28.5683 29.5708 30.4529C27.7052 32.3375 25.1649 33.4068 22.5083 33.4258Z" fill="#FEC401"/>
<mask id="mask0_1778_4441" style="mask-type:luminance" maskUnits="userSpaceOnUse" x="3" y="4" width="39" height="39">
<path d="M34.0957 7.68184C33.9731 8.13543 33.7567 8.55848 33.4604 8.92384C32.7751 9.65073 31.901 10.1741 30.9351 10.4358C30.8206 10.4634 30.7145 10.5183 30.626 10.5958C30.5225 10.7414 30.4722 10.9178 30.4835 11.0958C30.4551 11.6837 30.2545 12.2504 29.9064 12.7258C29.7334 12.9579 29.5075 13.1456 29.2472 13.2734C28.987 13.4012 28.7 13.4655 28.4099 13.4608C28.1477 13.431 27.8898 13.3716 27.6411 13.2838C25.8666 12.7943 24.0452 12.4926 22.2072 12.3838C21.0936 12.3584 19.9918 12.15 18.9463 11.7668C18.0269 11.3668 16.8727 10.4158 16.957 9.30083C16.9188 7.97574 17.0452 6.65102 17.3334 5.35683C17.4499 5.01888 17.5977 4.69247 17.775 4.38184C13.4896 5.43729 9.69238 7.91448 7.00786 11.406C4.32334 14.8974 2.91141 19.1952 3.00431 23.5925C3.09721 27.9897 4.68941 32.2246 7.51902 35.6004C10.3486 38.9762 14.2471 41.292 18.5733 42.1668C22.8995 43.0417 27.3957 42.4235 31.3223 40.4139C35.249 38.4044 38.3723 35.1231 40.1785 31.1099C41.9847 27.0967 42.3662 22.5905 41.2603 18.3326C40.1544 14.0746 37.627 10.3184 34.0937 7.68184H34.0957ZM22.5083 33.4258C20.5074 33.4534 18.5434 32.8874 16.8662 31.7999C15.189 30.7123 13.8743 29.1523 13.0893 27.3182C12.3044 25.4842 12.0847 23.459 12.4581 21.5002C12.8315 19.5414 13.7812 17.7375 15.1864 16.318C16.5916 14.8984 18.3889 13.9273 20.3495 13.5282C22.3101 13.1291 24.3456 13.32 26.1971 14.0767C28.0485 14.8333 29.6323 16.1215 30.7469 17.7774C31.8616 19.4332 32.4567 21.382 32.4567 23.3758C32.4743 26.0227 31.4363 28.5683 29.5708 30.4529C27.7052 32.3375 25.1649 33.4068 22.5083 33.4258Z" fill="white"/>
</mask>
<g mask="url(#mask0_1778_4441)">
<path d="M30.0319 42.7584C34.2984 42.7584 37.7572 39.2644 37.7572 34.9544C37.7572 30.6444 34.2984 27.1504 30.0319 27.1504C25.7654 27.1504 22.3066 30.6444 22.3066 34.9544C22.3066 39.2644 25.7654 42.7584 30.0319 42.7584Z" fill="#01A2FD"/>
</g>
<mask id="mask1_1778_4441" style="mask-type:luminance" maskUnits="userSpaceOnUse" x="3" y="4" width="39" height="39">
<path d="M34.0957 7.68184C33.9731 8.13543 33.7567 8.55848 33.4604 8.92384C32.7749 9.65048 31.9009 10.1738 30.9351 10.4358C30.8206 10.4634 30.7145 10.5183 30.626 10.5958C30.5225 10.7414 30.4722 10.9178 30.4835 11.0958C30.4551 11.6837 30.2545 12.2504 29.9064 12.7258C29.7334 12.9579 29.5075 13.1456 29.2472 13.2734C28.987 13.4012 28.7 13.4655 28.4099 13.4608C28.1477 13.431 27.8898 13.3716 27.6411 13.2838C25.8666 12.7943 24.0452 12.4927 22.2072 12.3838C21.0936 12.3584 19.9918 12.15 18.9463 11.7668C18.0269 11.3668 16.8727 10.4158 16.957 9.30083C16.9188 7.97574 17.0452 6.65102 17.3334 5.35683C17.4499 5.01888 17.5977 4.69247 17.775 4.38184C13.4896 5.43729 9.69238 7.91448 7.00786 11.406C4.32334 14.8974 2.91141 19.1952 3.00431 23.5925C3.09721 27.9897 4.68941 32.2246 7.51902 35.6004C10.3486 38.9762 14.2471 41.292 18.5733 42.1668C22.8995 43.0417 27.3957 42.4235 31.3223 40.4139C35.249 38.4044 38.3723 35.1231 40.1785 31.1099C41.9847 27.0967 42.3662 22.5905 41.2603 18.3326C40.1544 14.0746 37.627 10.3184 34.0937 7.68184H34.0957ZM22.5083 33.4258C20.5074 33.4534 18.5434 32.8874 16.8662 31.7999C15.189 30.7123 13.8743 29.1523 13.0893 27.3182C12.3044 25.4842 12.0847 23.459 12.4581 21.5002C12.8315 19.5414 13.7812 17.7375 15.1864 16.318C16.5916 14.8984 18.3889 13.9273 20.3495 13.5282C22.3101 13.1291 24.3456 13.32 26.1971 14.0767C28.0485 14.8333 29.6323 16.1215 30.7469 17.7774C31.8616 19.4332 32.4567 21.382 32.4567 23.3758C32.4743 26.0227 31.4363 28.5683 29.5708 30.4529C27.7052 32.3375 25.1649 33.4068 22.5083 33.4258Z" fill="white"/>
</mask>
<g mask="url(#mask1_1778_4441)">
<path d="M7.9047 24.0002C9.65023 24.0002 11.0653 22.5711 11.0653 20.8082C11.0653 19.0453 9.65023 17.6162 7.9047 17.6162C6.15917 17.6162 4.74414 19.0453 4.74414 20.8082C4.74414 22.5711 6.15917 24.0002 7.9047 24.0002Z" fill="#F97707"/>
</g>
<mask id="mask2_1778_4441" style="mask-type:luminance" maskUnits="userSpaceOnUse" x="3" y="4" width="39" height="39">
<path d="M34.0957 7.68184C33.9731 8.13543 33.7567 8.55848 33.4604 8.92384C32.7751 9.65073 31.901 10.1741 30.9351 10.4358C30.8206 10.4634 30.7145 10.5183 30.626 10.5958C30.5225 10.7414 30.4722 10.9178 30.4835 11.0958C30.4551 11.6837 30.2545 12.2504 29.9064 12.7258C29.7334 12.9579 29.5075 13.1456 29.2472 13.2734C28.987 13.4012 28.7 13.4655 28.4099 13.4608C28.1477 13.431 27.8898 13.3716 27.6411 13.2838C25.8666 12.7943 24.0452 12.4926 22.2072 12.3838C21.0936 12.3584 19.9918 12.15 18.9463 11.7668C18.0269 11.3668 16.8727 10.4158 16.957 9.30083C16.9188 7.97574 17.0452 6.65102 17.3334 5.35683C17.4499 5.01888 17.5977 4.69247 17.775 4.38184C13.4896 5.43729 9.69238 7.91448 7.00786 11.406C4.32334 14.8974 2.91141 19.1952 3.00431 23.5925C3.09721 27.9897 4.68941 32.2246 7.51902 35.6004C10.3486 38.9762 14.2471 41.292 18.5733 42.1668C22.8995 43.0417 27.3957 42.4235 31.3223 40.4139C35.249 38.4044 38.3723 35.1231 40.1785 31.1099C41.9847 27.0967 42.3662 22.5905 41.2603 18.3326C40.1544 14.0746 37.627 10.3184 34.0937 7.68184H34.0957ZM22.5083 33.4258C20.5074 33.4534 18.5434 32.8874 16.8662 31.7999C15.189 30.7123 13.8743 29.1523 13.0893 27.3182C12.3044 25.4842 12.0847 23.459 12.4581 21.5002C12.8315 19.5414 13.7812 17.7375 15.1864 16.318C16.5916 14.8984 18.3889 13.9273 20.3495 13.5282C22.3101 13.1291 24.3456 13.32 26.1971 14.0767C28.0485 14.8333 29.6323 16.1215 30.7469 17.7774C31.8616 19.4332 32.4567 21.382 32.4567 23.3758C32.4743 26.0227 31.4363 28.5683 29.5708 30.4529C27.7052 32.3375 25.1649 33.4068 22.5083 33.4258Z" fill="white"/>
</mask>
<g mask="url(#mask2_1778_4441)">
<path d="M13.6803 34.5592C16.8476 34.5592 19.4153 31.9651 19.4153 28.7652C19.4153 25.5653 16.8476 22.9712 13.6803 22.9712C10.5129 22.9712 7.94531 25.5653 7.94531 28.7652C7.94531 31.9651 10.5129 34.5592 13.6803 34.5592Z" fill="#01A2FD"/>
</g>
<mask id="mask3_1778_4441" style="mask-type:luminance" maskUnits="userSpaceOnUse" x="3" y="4" width="39" height="39">
<path d="M34.0957 7.68184C33.973 8.13508 33.7566 8.55777 33.4604 8.92284C32.7751 9.64973 31.901 10.1731 30.9351 10.4348C30.8206 10.4624 30.7145 10.5173 30.626 10.5948C30.5225 10.7404 30.4722 10.9168 30.4835 11.0948C30.4551 11.6827 30.2545 12.2494 29.9064 12.7248C29.7334 12.9569 29.5075 13.1446 29.2472 13.2724C28.987 13.4002 28.7 13.4645 28.4099 13.4598C28.1477 13.43 27.8898 13.3706 27.6411 13.2828C25.8666 12.7933 24.0452 12.4917 22.2072 12.3828C21.0936 12.3575 19.9918 12.149 18.9463 11.7658C18.0269 11.3658 16.8727 10.4148 16.957 9.29984C16.9188 7.97474 17.0452 6.65002 17.3334 5.35583C17.4499 5.01822 17.5978 4.69215 17.775 4.38184C13.4896 5.43729 9.69238 7.91448 7.00786 11.406C4.32334 14.8974 2.91141 19.1952 3.00431 23.5925C3.09721 27.9897 4.68941 32.2246 7.51902 35.6004C10.3486 38.9762 14.2471 41.292 18.5733 42.1668C22.8995 43.0417 27.3957 42.4235 31.3223 40.4139C35.249 38.4044 38.3723 35.1231 40.1785 31.1099C41.9847 27.0967 42.3662 22.5905 41.2603 18.3326C40.1544 14.0746 37.627 10.3184 34.0937 7.68184H34.0957ZM22.5083 33.4258C20.5074 33.4534 18.5434 32.8874 16.8662 31.7999C15.189 30.7123 13.8743 29.1523 13.0893 27.3182C12.3044 25.4842 12.0847 23.459 12.4581 21.5002C12.8315 19.5414 13.7812 17.7375 15.1864 16.318C16.5916 14.8984 18.3889 13.9273 20.3495 13.5282C22.3101 13.1291 24.3456 13.32 26.1971 14.0767C28.0485 14.8333 29.6323 16.1215 30.7469 17.7774C31.8616 19.4332 32.4567 21.382 32.4567 23.3758C32.4743 26.0227 31.4363 28.5683 29.5708 30.4529C27.7052 32.3375 25.1649 33.4068 22.5083 33.4258Z" fill="white"/>
</mask>
<g mask="url(#mask3_1778_4441)">
<path d="M5.66282 22.0343C8.83016 22.0343 11.3978 19.4402 11.3978 16.2403C11.3978 13.0404 8.83016 10.4463 5.66282 10.4463C2.49548 10.4463 -0.0721588 13.0404 -0.0721588 16.2403C-0.0721588 19.4402 2.49548 22.0343 5.66282 22.0343Z" fill="#014DAF"/>
</g>
<mask id="mask4_1778_4441" style="mask-type:luminance" maskUnits="userSpaceOnUse" x="3" y="4" width="39" height="39">
<path d="M34.0957 7.68184C33.973 8.13508 33.7566 8.55777 33.4604 8.92284C32.7751 9.64973 31.901 10.1731 30.9351 10.4348C30.8206 10.4624 30.7145 10.5173 30.626 10.5948C30.5225 10.7404 30.4722 10.9168 30.4835 11.0948C30.4551 11.6827 30.2545 12.2494 29.9064 12.7248C29.7334 12.9569 29.5075 13.1446 29.2472 13.2724C28.987 13.4002 28.7 13.4645 28.4099 13.4598C28.1477 13.43 27.8898 13.3706 27.6411 13.2828C25.8666 12.7933 24.0452 12.4917 22.2072 12.3828C21.0936 12.3575 19.9918 12.149 18.9463 11.7658C18.0269 11.3658 16.8727 10.4148 16.957 9.29984C16.9188 7.97474 17.0452 6.65002 17.3334 5.35583C17.4499 5.01822 17.5978 4.69215 17.775 4.38184C13.4896 5.43729 9.69238 7.91448 7.00786 11.406C4.32334 14.8974 2.91141 19.1952 3.00431 23.5925C3.09721 27.9897 4.68941 32.2246 7.51902 35.6004C10.3486 38.9762 14.2471 41.292 18.5733 42.1668C22.8995 43.0417 27.3957 42.4235 31.3223 40.4139C35.249 38.4044 38.3723 35.1231 40.1785 31.1099C41.9847 27.0967 42.3662 22.5905 41.2603 18.3326C40.1544 14.0746 37.627 10.3184 34.0937 7.68184H34.0957ZM22.5083 33.4258C20.5074 33.4534 18.5434 32.8874 16.8662 31.7999C15.189 30.7123 13.8743 29.1523 13.0893 27.3182C12.3044 25.4842 12.0847 23.459 12.4581 21.5002C12.8315 19.5414 13.7812 17.7375 15.1864 16.318C16.5916 14.8984 18.3889 13.9273 20.3495 13.5282C22.3101 13.1291 24.3456 13.32 26.1971 14.0767C28.0485 14.8333 29.6323 16.1215 30.7469 17.7774C31.8616 19.4332 32.4567 21.382 32.4567 23.3758C32.4743 26.0227 31.4363 28.5683 29.5708 30.4529C27.7052 32.3375 25.1649 33.4068 22.5083 33.4258Z" fill="white"/>
</mask>
<g mask="url(#mask4_1778_4441)">
<path d="M16.481 17.1192C19.0668 17.1192 21.1631 15.0015 21.1631 12.3892C21.1631 9.77687 19.0668 7.65918 16.481 7.65918C13.8951 7.65918 11.7988 9.77687 11.7988 12.3892C11.7988 15.0015 13.8951 17.1192 16.481 17.1192Z" fill="#F97707"/>
</g>
<mask id="mask5_1778_4441" style="mask-type:luminance" maskUnits="userSpaceOnUse" x="3" y="4" width="39" height="39">
<path d="M34.0957 7.68184C33.973 8.13508 33.7566 8.55777 33.4604 8.92284C32.7751 9.64973 31.901 10.1731 30.9351 10.4348C30.8206 10.4624 30.7145 10.5173 30.626 10.5948C30.5225 10.7404 30.4722 10.9168 30.4835 11.0948C30.4551 11.6827 30.2545 12.2494 29.9064 12.7248C29.7334 12.9569 29.5075 13.1446 29.2472 13.2724C28.987 13.4002 28.7 13.4645 28.4099 13.4598C28.1477 13.43 27.8898 13.3706 27.6411 13.2828C25.8666 12.7933 24.0452 12.4917 22.2072 12.3828C21.0936 12.3575 19.9918 12.149 18.9463 11.7658C18.0269 11.3658 16.8727 10.4148 16.957 9.29984C16.9188 7.97474 17.0452 6.65002 17.3334 5.35583C17.4499 5.01822 17.5978 4.69215 17.775 4.38184C13.4896 5.43729 9.69238 7.91448 7.00786 11.406C4.32334 14.8974 2.91141 19.1952 3.00431 23.5925C3.09721 27.9897 4.68941 32.2246 7.51902 35.6004C10.3486 38.9762 14.2471 41.292 18.5733 42.1668C22.8995 43.0417 27.3957 42.4235 31.3223 40.4139C35.249 38.4044 38.3723 35.1231 40.1785 31.1099C41.9847 27.0967 42.3662 22.5905 41.2603 18.3326C40.1544 14.0746 37.627 10.3184 34.0937 7.68184H34.0957ZM22.5083 33.4258C20.5074 33.4534 18.5434 32.8874 16.8662 31.7999C15.189 30.7123 13.8743 29.1523 13.0893 27.3182C12.3044 25.4842 12.0847 23.459 12.4581 21.5002C12.8315 19.5414 13.7812 17.7375 15.1864 16.318C16.5916 14.8984 18.3889 13.9273 20.3495 13.5282C22.3101 13.1291 24.3456 13.32 26.1971 14.0767C28.0485 14.8333 29.6323 16.1215 30.7469 17.7774C31.8616 19.4332 32.4567 21.382 32.4567 23.3758C32.4743 26.0227 31.4363 28.5683 29.5708 30.4529C27.7052 32.3375 25.1649 33.4068 22.5083 33.4258Z" fill="white"/>
</mask>
<g mask="url(#mask5_1778_4441)">
<path d="M14.9175 10.5801C17.4801 10.5801 19.5575 8.48161 19.5575 5.89305C19.5575 3.3045 17.4801 1.20605 14.9175 1.20605C12.355 1.20605 10.2776 3.3045 10.2776 5.89305C10.2776 8.48161 12.355 10.5801 14.9175 10.5801Z" fill="#01A2FD"/>
</g>
<mask id="mask6_1778_4441" style="mask-type:luminance" maskUnits="userSpaceOnUse" x="3" y="4" width="39" height="39">
<path d="M34.0957 7.68184C33.973 8.13508 33.7566 8.55777 33.4604 8.92284C32.7751 9.64973 31.901 10.1731 30.9351 10.4348C30.8206 10.4624 30.7145 10.5173 30.626 10.5948C30.5225 10.7404 30.4722 10.9168 30.4835 11.0948C30.4551 11.6827 30.2545 12.2494 29.9064 12.7248C29.7334 12.9569 29.5075 13.1446 29.2472 13.2724C28.987 13.4002 28.7 13.4645 28.4099 13.4598C28.1477 13.43 27.8898 13.3706 27.6411 13.2828C25.8666 12.7933 24.0452 12.4917 22.2072 12.3828C21.0936 12.3575 19.9918 12.149 18.9463 11.7658C18.0269 11.3658 16.8727 10.4148 16.957 9.29984C16.9188 7.97474 17.0452 6.65002 17.3334 5.35583C17.4499 5.01822 17.5978 4.69215 17.775 4.38184C13.4896 5.43729 9.69238 7.91448 7.00786 11.406C4.32334 14.8974 2.91141 19.1952 3.00431 23.5925C3.09721 27.9897 4.68941 32.2246 7.51902 35.6004C10.3486 38.9762 14.2471 41.292 18.5733 42.1668C22.8995 43.0417 27.3957 42.4235 31.3223 40.4139C35.249 38.4044 38.3723 35.1231 40.1785 31.1099C41.9847 27.0967 42.3662 22.5905 41.2603 18.3326C40.1544 14.0746 37.627 10.3184 34.0937 7.68184H34.0957ZM22.5083 33.4258C20.5074 33.4534 18.5434 32.8874 16.8662 31.7999C15.189 30.7123 13.8743 29.1523 13.0893 27.3182C12.3044 25.4842 12.0847 23.459 12.4581 21.5002C12.8315 19.5414 13.7812 17.7375 15.1864 16.318C16.5916 14.8984 18.3889 13.9273 20.3495 13.5282C22.3101 13.1291 24.3456 13.32 26.1971 14.0767C28.0485 14.8333 29.6323 16.1215 30.7469 17.7774C31.8616 19.4332 32.4567 21.382 32.4567 23.3758C32.4743 26.0227 31.4363 28.5683 29.5708 30.4529C27.7052 32.3375 25.1649 33.4068 22.5083 33.4258Z" fill="white"/>
</mask>
<g mask="url(#mask6_1778_4441)">
<path d="M37.4731 19.8809C40.059 19.8809 42.1553 17.7632 42.1553 15.1509C42.1553 12.5386 40.059 10.4209 37.4731 10.4209C34.8873 10.4209 32.791 12.5386 32.791 15.1509C32.791 17.7632 34.8873 19.8809 37.4731 19.8809Z" fill="#F97707"/>
</g>
<mask id="mask7_1778_4441" style="mask-type:luminance" maskUnits="userSpaceOnUse" x="3" y="4" width="39" height="39">
<path d="M34.0957 7.68184C33.9731 8.13543 33.7567 8.55848 33.4604 8.92384C32.7751 9.65073 31.901 10.1741 30.9351 10.4358C30.8206 10.4634 30.7145 10.5183 30.626 10.5958C30.5225 10.7414 30.4722 10.9178 30.4835 11.0958C30.4551 11.6837 30.2545 12.2504 29.9064 12.7258C29.7334 12.9579 29.5075 13.1456 29.2472 13.2734C28.987 13.4012 28.7 13.4655 28.4099 13.4608C28.1477 13.431 27.8898 13.3716 27.6411 13.2838C25.8666 12.7943 24.0452 12.4926 22.2072 12.3838C21.0936 12.3584 19.9918 12.15 18.9463 11.7668C18.0269 11.3668 16.8727 10.4158 16.957 9.30083C16.9188 7.97574 17.0452 6.65102 17.3334 5.35683C17.4499 5.01888 17.5977 4.69247 17.775 4.38184C13.4896 5.43729 9.69238 7.91448 7.00786 11.406C4.32334 14.8974 2.91141 19.1952 3.00431 23.5925C3.09721 27.9897 4.68941 32.2246 7.51902 35.6004C10.3486 38.9762 14.2471 41.292 18.5733 42.1668C22.8995 43.0417 27.3957 42.4235 31.3223 40.4139C35.249 38.4044 38.3723 35.1231 40.1785 31.1099C41.9847 27.0967 42.3662 22.5905 41.2603 18.3326C40.1544 14.0746 37.627 10.3184 34.0937 7.68184H34.0957ZM22.5083 33.4258C20.5074 33.4534 18.5434 32.8874 16.8662 31.7999C15.189 30.7123 13.8743 29.1523 13.0893 27.3182C12.3044 25.4842 12.0847 23.459 12.4581 21.5002C12.8315 19.5414 13.7812 17.7375 15.1864 16.318C16.5916 14.8984 18.3889 13.9273 20.3495 13.5282C22.3101 13.1291 24.3456 13.32 26.1971 14.0767C28.0485 14.8333 29.6323 16.1215 30.7469 17.7774C31.8616 19.4332 32.4567 21.382 32.4567 23.3758C32.4743 26.0227 31.4363 28.5683 29.5708 30.4529C27.7052 32.3375 25.1649 33.4068 22.5083 33.4258Z" fill="white"/>
</mask>
<g mask="url(#mask7_1778_4441)">
<path d="M36.5291 22.8431C38.2419 22.8431 39.6304 21.4405 39.6304 19.7101C39.6304 17.9798 38.2419 16.5771 36.5291 16.5771C34.8163 16.5771 33.4277 17.9798 33.4277 19.7101C33.4277 21.4405 34.8163 22.8431 36.5291 22.8431Z" fill="#01A2FD"/>
</g>
<mask id="mask8_1778_4441" style="mask-type:luminance" maskUnits="userSpaceOnUse" x="3" y="4" width="39" height="39">
<path d="M34.0957 7.68184C33.973 8.13508 33.7566 8.55777 33.4604 8.92284C32.7751 9.64973 31.901 10.1731 30.9351 10.4348C30.8206 10.4624 30.7145 10.5173 30.626 10.5948C30.5225 10.7404 30.4722 10.9168 30.4835 11.0948C30.4551 11.6827 30.2545 12.2494 29.9064 12.7248C29.7334 12.9569 29.5075 13.1446 29.2472 13.2724C28.987 13.4002 28.7 13.4645 28.4099 13.4598C28.1477 13.43 27.8898 13.3706 27.6411 13.2828C25.8666 12.7933 24.0452 12.4917 22.2072 12.3828C21.0936 12.3575 19.9918 12.149 18.9463 11.7658C18.0269 11.3658 16.8727 10.4148 16.957 9.29984C16.9188 7.97474 17.0452 6.65002 17.3334 5.35583C17.4499 5.01822 17.5978 4.69215 17.775 4.38184C13.4896 5.43729 9.69238 7.91448 7.00786 11.406C4.32334 14.8974 2.91141 19.1952 3.00431 23.5925C3.09721 27.9897 4.68941 32.2246 7.51902 35.6004C10.3486 38.9762 14.2471 41.292 18.5733 42.1668C22.8995 43.0417 27.3957 42.4235 31.3223 40.4139C35.249 38.4044 38.3723 35.1231 40.1785 31.1099C41.9847 27.0967 42.3662 22.5905 41.2603 18.3326C40.1544 14.0746 37.627 10.3184 34.0937 7.68184H34.0957ZM22.5083 33.4258C20.5074 33.4534 18.5434 32.8874 16.8662 31.7999C15.189 30.7123 13.8743 29.1523 13.0893 27.3182C12.3044 25.4842 12.0847 23.459 12.4581 21.5002C12.8315 19.5414 13.7812 17.7375 15.1864 16.318C16.5916 14.8984 18.3889 13.9273 20.3495 13.5282C22.3101 13.1291 24.3456 13.32 26.1971 14.0767C28.0485 14.8333 29.6323 16.1215 30.7469 17.7774C31.8616 19.4332 32.4567 21.382 32.4567 23.3758C32.4743 26.0227 31.4363 28.5683 29.5708 30.4529C27.7052 32.3375 25.1649 33.4068 22.5083 33.4258Z" fill="white"/>
</mask>
<g mask="url(#mask8_1778_4441)">
<path d="M28.2849 15.4955C29.9978 15.4955 31.3863 14.0928 31.3863 12.3625C31.3863 10.6322 29.9978 9.22949 28.2849 9.22949C26.5721 9.22949 25.1836 10.6322 25.1836 12.3625C25.1836 14.0928 26.5721 15.4955 28.2849 15.4955Z" fill="#014DAF"/>
</g>
<mask id="mask9_1778_4441" style="mask-type:luminance" maskUnits="userSpaceOnUse" x="3" y="4" width="39" height="39">
<path d="M34.0957 7.68184C33.973 8.13508 33.7566 8.55777 33.4604 8.92284C32.7751 9.64973 31.901 10.1731 30.9351 10.4348C30.8206 10.4624 30.7145 10.5173 30.626 10.5948C30.5225 10.7404 30.4722 10.9168 30.4835 11.0948C30.4551 11.6827 30.2545 12.2494 29.9064 12.7248C29.7334 12.9569 29.5075 13.1446 29.2472 13.2724C28.987 13.4002 28.7 13.4645 28.4099 13.4598C28.1477 13.43 27.8898 13.3706 27.6411 13.2828C25.8666 12.7933 24.0452 12.4917 22.2072 12.3828C21.0936 12.3575 19.9918 12.149 18.9463 11.7658C18.0269 11.3658 16.8727 10.4148 16.957 9.29984C16.9188 7.97474 17.0452 6.65002 17.3334 5.35583C17.4499 5.01822 17.5978 4.69215 17.775 4.38184C13.4896 5.43729 9.69238 7.91448 7.00786 11.406C4.32334 14.8974 2.91141 19.1952 3.00431 23.5925C3.09721 27.9897 4.68941 32.2246 7.51902 35.6004C10.3486 38.9762 14.2471 41.292 18.5733 42.1668C22.8995 43.0417 27.3957 42.4235 31.3223 40.4139C35.249 38.4044 38.3723 35.1231 40.1785 31.1099C41.9847 27.0967 42.3662 22.5905 41.2603 18.3326C40.1544 14.0746 37.627 10.3184 34.0937 7.68184H34.0957ZM22.5083 33.4258C20.5074 33.4534 18.5434 32.8874 16.8662 31.7999C15.189 30.7123 13.8743 29.1523 13.0893 27.3182C12.3044 25.4842 12.0847 23.459 12.4581 21.5002C12.8315 19.5414 13.7812 17.7375 15.1864 16.318C16.5916 14.8984 18.3889 13.9273 20.3495 13.5282C22.3101 13.1291 24.3456 13.32 26.1971 14.0767C28.0485 14.8333 29.6323 16.1215 30.7469 17.7774C31.8616 19.4332 32.4567 21.382 32.4567 23.3758C32.4743 26.0227 31.4363 28.5683 29.5708 30.4529C27.7052 32.3375 25.1649 33.4068 22.5083 33.4258Z" fill="white"/>
</mask>
<g mask="url(#mask9_1778_4441)">
<path d="M22.8772 8.60491C24.1006 8.60491 25.0923 7.60292 25.0923 6.36691C25.0923 5.13089 24.1006 4.12891 22.8772 4.12891C21.6538 4.12891 20.6621 5.13089 20.6621 6.36691C20.6621 7.60292 21.6538 8.60491 22.8772 8.60491Z" fill="#014DAF"/>
</g>
<mask id="mask10_1778_4441" style="mask-type:luminance" maskUnits="userSpaceOnUse" x="3" y="4" width="39" height="39">
<path d="M34.0957 7.68184C33.9731 8.13543 33.7567 8.55848 33.4604 8.92384C32.7751 9.65073 31.901 10.1741 30.9351 10.4358C30.8206 10.4634 30.7145 10.5183 30.626 10.5958C30.5225 10.7414 30.4722 10.9178 30.4835 11.0958C30.4551 11.6837 30.2545 12.2504 29.9064 12.7258C29.7334 12.9579 29.5075 13.1456 29.2472 13.2734C28.987 13.4012 28.7 13.4655 28.4099 13.4608C28.1477 13.431 27.8898 13.3716 27.6411 13.2838C25.8666 12.7943 24.0452 12.4926 22.2072 12.3838C21.0936 12.3584 19.9918 12.15 18.9463 11.7668C18.0269 11.3668 16.8727 10.4158 16.957 9.30083C16.9188 7.97574 17.0452 6.65102 17.3334 5.35683C17.4499 5.01888 17.5977 4.69247 17.775 4.38184C13.4896 5.43729 9.69238 7.91448 7.00786 11.406C4.32334 14.8974 2.91141 19.1952 3.00431 23.5925C3.09721 27.9897 4.68941 32.2246 7.51902 35.6004C10.3486 38.9762 14.2471 41.292 18.5733 42.1668C22.8995 43.0417 27.3957 42.4235 31.3223 40.4139C35.249 38.4044 38.3723 35.1231 40.1785 31.1099C41.9847 27.0967 42.3662 22.5905 41.2603 18.3326C40.1544 14.0746 37.627 10.3184 34.0937 7.68184H34.0957ZM22.5083 33.4258C20.5074 33.4534 18.5434 32.8874 16.8662 31.7999C15.189 30.7123 13.8743 29.1523 13.0893 27.3182C12.3044 25.4842 12.0847 23.459 12.4581 21.5002C12.8315 19.5414 13.7812 17.7375 15.1864 16.318C16.5916 14.8984 18.3889 13.9273 20.3495 13.5282C22.3101 13.1291 24.3456 13.32 26.1971 14.0767C28.0485 14.8333 29.6323 16.1215 30.7469 17.7774C31.8616 19.4332 32.4567 21.382 32.4567 23.3758C32.4743 26.0227 31.4363 28.5683 29.5708 30.4529C27.7052 32.3375 25.1649 33.4068 22.5083 33.4258Z" fill="white"/>
</mask>
<g mask="url(#mask10_1778_4441)">
<path d="M15.854 42.8858C18.4398 42.8858 20.5361 40.7681 20.5361 38.1558C20.5361 35.5435 18.4398 33.4258 15.854 33.4258C13.2681 33.4258 11.1718 35.5435 11.1718 38.1558C11.1718 40.7681 13.2681 42.8858 15.854 42.8858Z" fill="#F97707"/>
</g>
<mask id="mask11_1778_4441" style="mask-type:luminance" maskUnits="userSpaceOnUse" x="3" y="4" width="39" height="39">
<path d="M34.0957 7.68184C33.9731 8.13543 33.7567 8.55848 33.4604 8.92384C32.7751 9.65073 31.901 10.1741 30.9351 10.4358C30.8206 10.4634 30.7145 10.5183 30.626 10.5958C30.5225 10.7414 30.4722 10.9178 30.4835 11.0958C30.4551 11.6837 30.2545 12.2504 29.9064 12.7258C29.7334 12.9579 29.5075 13.1456 29.2472 13.2734C28.987 13.4012 28.7 13.4655 28.4099 13.4608C28.1477 13.431 27.8898 13.3716 27.6411 13.2838C25.8666 12.7943 24.0452 12.4926 22.2072 12.3838C21.0936 12.3584 19.9918 12.15 18.9463 11.7668C18.0269 11.3668 16.8727 10.4158 16.957 9.30083C16.9188 7.97574 17.0452 6.65102 17.3334 5.35683C17.4499 5.01888 17.5977 4.69247 17.775 4.38184C13.4896 5.43729 9.69238 7.91448 7.00786 11.406C4.32334 14.8974 2.91141 19.1952 3.00431 23.5925C3.09721 27.9897 4.68941 32.2246 7.51902 35.6004C10.3486 38.9762 14.2471 41.292 18.5733 42.1668C22.8995 43.0417 27.3957 42.4235 31.3223 40.4139C35.249 38.4044 38.3723 35.1231 40.1785 31.1099C41.9847 27.0967 42.3662 22.5905 41.2603 18.3326C40.1544 14.0746 37.627 10.3184 34.0937 7.68184H34.0957ZM22.5083 33.4258C20.5074 33.4534 18.5434 32.8874 16.8662 31.7999C15.189 30.7123 13.8743 29.1523 13.0893 27.3182C12.3044 25.4842 12.0847 23.459 12.4581 21.5002C12.8315 19.5414 13.7812 17.7375 15.1864 16.318C16.5916 14.8984 18.3889 13.9273 20.3495 13.5282C22.3101 13.1291 24.3456 13.32 26.1971 14.0767C28.0485 14.8333 29.6323 16.1215 30.7469 17.7774C31.8616 19.4332 32.4567 21.382 32.4567 23.3758C32.4743 26.0227 31.4363 28.5683 29.5708 30.4529C27.7052 32.3375 25.1649 33.4068 22.5083 33.4258Z" fill="white"/>
</mask>
<g mask="url(#mask11_1778_4441)">
<path d="M5.203 33.0203C7.11427 33.0203 8.66366 31.4551 8.66366 29.5243C8.66366 27.5935 7.11427 26.0283 5.203 26.0283C3.29173 26.0283 1.74234 27.5935 1.74234 29.5243C1.74234 31.4551 3.29173 33.0203 5.203 33.0203Z" fill="#014DAF"/>
</g>
<mask id="mask12_1778_4441" style="mask-type:luminance" maskUnits="userSpaceOnUse" x="3" y="4" width="39" height="39">
<path d="M34.0957 7.68184C33.9731 8.13543 33.7567 8.55848 33.4604 8.92384C32.7751 9.65073 31.901 10.1741 30.9351 10.4358C30.8206 10.4634 30.7145 10.5183 30.626 10.5958C30.5225 10.7414 30.4722 10.9178 30.4835 11.0958C30.4551 11.6837 30.2545 12.2504 29.9064 12.7258C29.7334 12.9579 29.5075 13.1456 29.2472 13.2734C28.987 13.4012 28.7 13.4655 28.4099 13.4608C28.1477 13.431 27.8898 13.3716 27.6411 13.2838C25.8666 12.7943 24.0452 12.4926 22.2072 12.3838C21.0936 12.3584 19.9918 12.15 18.9463 11.7668C18.0269 11.3668 16.8727 10.4158 16.957 9.30083C16.9188 7.97574 17.0452 6.65102 17.3334 5.35683C17.4499 5.01888 17.5977 4.69247 17.775 4.38184C13.4896 5.43729 9.69238 7.91448 7.00786 11.406C4.32334 14.8974 2.91141 19.1952 3.00431 23.5925C3.09721 27.9897 4.68941 32.2246 7.51902 35.6004C10.3486 38.9762 14.2471 41.292 18.5733 42.1668C22.8995 43.0417 27.3957 42.4235 31.3223 40.4139C35.249 38.4044 38.3723 35.1231 40.1785 31.1099C41.9847 27.0967 42.3662 22.5905 41.2603 18.3326C40.1544 14.0746 37.627 10.3184 34.0937 7.68184H34.0957ZM22.5083 33.4258C20.5074 33.4534 18.5434 32.8874 16.8662 31.7999C15.189 30.7123 13.8743 29.1523 13.0893 27.3182C12.3044 25.4842 12.0847 23.459 12.4581 21.5002C12.8315 19.5414 13.7812 17.7375 15.1864 16.318C16.5916 14.8984 18.3889 13.9273 20.3495 13.5282C22.3101 13.1291 24.3456 13.32 26.1971 14.0767C28.0485 14.8333 29.6323 16.1215 30.7469 17.7774C31.8616 19.4332 32.4567 21.382 32.4567 23.3758C32.4743 26.0227 31.4363 28.5683 29.5708 30.4529C27.7052 32.3375 25.1649 33.4068 22.5083 33.4258Z" fill="white"/>
</mask>
<g mask="url(#mask12_1778_4441)">
<path d="M23.409 46.0942C26.8989 46.0942 29.7281 43.236 29.7281 39.7102C29.7281 36.1844 26.8989 33.3262 23.409 33.3262C19.919 33.3262 17.0898 36.1844 17.0898 39.7102C17.0898 43.236 19.919 46.0942 23.409 46.0942Z" fill="#014DAF"/>
</g>
<mask id="mask13_1778_4441" style="mask-type:luminance" maskUnits="userSpaceOnUse" x="3" y="4" width="39" height="39">
<path d="M34.0957 7.68184C33.9731 8.13543 33.7567 8.55848 33.4604 8.92384C32.7751 9.65073 31.901 10.1741 30.9351 10.4358C30.8206 10.4634 30.7145 10.5183 30.626 10.5958C30.5225 10.7414 30.4722 10.9178 30.4835 11.0958C30.4551 11.6837 30.2545 12.2504 29.9064 12.7258C29.7334 12.9579 29.5075 13.1456 29.2472 13.2734C28.987 13.4012 28.7 13.4655 28.4099 13.4608C28.1477 13.431 27.8898 13.3716 27.6411 13.2838C25.8666 12.7943 24.0452 12.4926 22.2072 12.3838C21.0936 12.3584 19.9918 12.15 18.9463 11.7668C18.0269 11.3668 16.8727 10.4158 16.957 9.30083C16.9188 7.97574 17.0452 6.65102 17.3334 5.35683C17.4499 5.01888 17.5977 4.69247 17.775 4.38184C13.4896 5.43729 9.69238 7.91448 7.00786 11.406C4.32334 14.8974 2.91141 19.1952 3.00431 23.5925C3.09721 27.9897 4.68941 32.2246 7.51902 35.6004C10.3486 38.9762 14.2471 41.292 18.5733 42.1668C22.8995 43.0417 27.3957 42.4235 31.3223 40.4139C35.249 38.4044 38.3723 35.1231 40.1785 31.1099C41.9847 27.0967 42.3662 22.5905 41.2603 18.3326C40.1544 14.0746 37.627 10.3184 34.0937 7.68184H34.0957ZM22.5083 33.4258C20.5074 33.4534 18.5434 32.8874 16.8662 31.7999C15.189 30.7123 13.8743 29.1523 13.0893 27.3182C12.3044 25.4842 12.0847 23.459 12.4581 21.5002C12.8315 19.5414 13.7812 17.7375 15.1864 16.318C16.5916 14.8984 18.3889 13.9273 20.3495 13.5282C22.3101 13.1291 24.3456 13.32 26.1971 14.0767C28.0485 14.8333 29.6323 16.1215 30.7469 17.7774C31.8616 19.4332 32.4567 21.382 32.4567 23.3758C32.4743 26.0227 31.4363 28.5683 29.5708 30.4529C27.7052 32.3375 25.1649 33.4068 22.5083 33.4258Z" fill="white"/>
</mask>
<g mask="url(#mask13_1778_4441)">
<path d="M35.6098 33.0881C37.3553 33.0881 38.7703 31.659 38.7703 29.8961C38.7703 28.1332 37.3553 26.7041 35.6098 26.7041C33.8642 26.7041 32.4492 28.1332 32.4492 29.8961C32.4492 31.659 33.8642 33.0881 35.6098 33.0881Z" fill="#014DAF"/>
</g>
<mask id="mask14_1778_4441" style="mask-type:luminance" maskUnits="userSpaceOnUse" x="3" y="4" width="39" height="39">
<path d="M34.0957 7.68184C33.9731 8.13543 33.7567 8.55848 33.4604 8.92384C32.7751 9.65073 31.901 10.1741 30.9351 10.4358C30.8206 10.4634 30.7145 10.5183 30.626 10.5958C30.5225 10.7414 30.4722 10.9178 30.4835 11.0958C30.4551 11.6837 30.2545 12.2504 29.9064 12.7258C29.7334 12.9579 29.5075 13.1456 29.2472 13.2734C28.987 13.4012 28.7 13.4655 28.4099 13.4608C28.1477 13.431 27.8898 13.3716 27.6411 13.2838C25.8666 12.7943 24.0452 12.4926 22.2072 12.3838C21.0936 12.3584 19.9918 12.15 18.9463 11.7668C18.0269 11.3668 16.8727 10.4158 16.957 9.30083C16.9188 7.97574 17.0452 6.65102 17.3334 5.35683C17.4499 5.01888 17.5977 4.69247 17.775 4.38184C13.4896 5.43729 9.69238 7.91448 7.00786 11.406C4.32334 14.8974 2.91141 19.1952 3.00431 23.5925C3.09721 27.9897 4.68941 32.2246 7.51902 35.6004C10.3486 38.9762 14.2471 41.292 18.5733 42.1668C22.8995 43.0417 27.3957 42.4235 31.3223 40.4139C35.249 38.4044 38.3723 35.1231 40.1785 31.1099C41.9847 27.0967 42.3662 22.5905 41.2603 18.3326C40.1544 14.0746 37.627 10.3184 34.0937 7.68184H34.0957ZM22.5083 33.4258C20.5074 33.4534 18.5434 32.8874 16.8662 31.7999C15.189 30.7123 13.8743 29.1523 13.0893 27.3182C12.3044 25.4842 12.0847 23.459 12.4581 21.5002C12.8315 19.5414 13.7812 17.7375 15.1864 16.318C16.5916 14.8984 18.3889 13.9273 20.3495 13.5282C22.3101 13.1291 24.3456 13.32 26.1971 14.0767C28.0485 14.8333 29.6323 16.1215 30.7469 17.7774C31.8616 19.4332 32.4567 21.382 32.4567 23.3758C32.4743 26.0227 31.4363 28.5683 29.5708 30.4529C27.7052 32.3375 25.1649 33.4068 22.5083 33.4258Z" fill="white"/>
</mask>
<g mask="url(#mask14_1778_4441)">
<path d="M43.0414 28.1721C44.7869 28.1721 46.202 26.743 46.202 24.9801C46.202 23.2172 44.7869 21.7881 43.0414 21.7881C41.2959 21.7881 39.8809 23.2172 39.8809 24.9801C39.8809 26.743 41.2959 28.1721 43.0414 28.1721Z" fill="#F97707"/>
</g>
<path d="M28.5449 6.7404C29.4822 6.7404 30.2421 5.98331 30.2421 5.0494C30.2421 4.11548 29.4822 3.3584 28.5449 3.3584C27.6075 3.3584 26.8477 4.11548 26.8477 5.0494C26.8477 5.98331 27.6075 6.7404 28.5449 6.7404Z" fill="#F97707"/>
<path d="M24.707 4.016C25.2658 4.016 25.7187 3.5647 25.7187 3.008C25.7187 2.4513 25.2658 2 24.707 2C24.1483 2 23.6953 2.4513 23.6953 3.008C23.6953 3.5647 24.1483 4.016 24.707 4.016Z" fill="#FEC401"/>
<path d="M32.7498 10.3879C33.6871 10.3879 34.447 9.63077 34.447 8.69686C34.447 7.76295 33.6871 7.00586 32.7498 7.00586C31.8124 7.00586 31.0526 7.76295 31.0526 8.69686C31.0526 9.63077 31.8124 10.3879 32.7498 10.3879Z" fill="#014DAF"/>
<mask id="mask15_1778_4441" style="mask-type:luminance" maskUnits="userSpaceOnUse" x="2" y="3" width="40" height="40">
<path d="M22.5084 3.80749C18.6115 3.75452 14.7869 4.85746 11.5209 6.97602C8.25489 9.09459 5.69505 12.1331 4.16691 15.7051C2.63876 19.2771 2.21137 23.2212 2.93908 27.0358C3.66678 30.8505 5.51671 34.3633 8.2536 37.1276C10.9905 39.8919 14.4907 41.7828 18.3091 42.5598C22.1275 43.3368 26.0915 42.9647 29.6971 41.491C33.3027 40.0173 36.3869 37.5084 38.5576 34.2836C40.7283 31.0587 41.8873 27.2634 41.8873 23.3805C41.9217 18.2248 39.8996 13.2665 36.2655 9.59605C32.6314 5.92558 27.683 3.84343 22.5084 3.80749ZM22.5084 33.4285C20.5079 33.4557 18.5445 32.8895 16.8679 31.8019C15.1913 30.7143 13.8771 29.1544 13.0927 27.3207C12.3082 25.487 12.0888 23.4623 12.4624 21.504C12.836 19.5457 13.7856 17.7424 15.1906 16.3233C16.5956 14.9042 18.3925 13.9335 20.3527 13.5347C22.3129 13.1358 24.3479 13.3268 26.1988 14.0833C28.0498 14.8399 29.6331 16.1278 30.7474 17.7833C31.8618 19.4388 32.4568 21.3871 32.4568 23.3805C32.4741 26.0271 31.4359 28.5723 29.5704 30.4565C27.7049 32.3407 25.1647 33.4097 22.5084 33.4285Z" fill="white"/>
</mask>
<g mask="url(#mask15_1778_4441)">
<path d="M23.2775 16.0934C24.7824 16.0934 26.0024 14.8608 26.0024 13.3404C26.0024 11.82 24.7824 10.5874 23.2775 10.5874C21.7725 10.5874 20.5525 11.82 20.5525 13.3404C20.5525 14.8608 21.7725 16.0934 23.2775 16.0934Z" fill="#FEC401"/>
</g>
<mask id="mask16_1778_4441" style="mask-type:luminance" maskUnits="userSpaceOnUse" x="2" y="3" width="40" height="40">
<path d="M22.5084 3.80749C18.6115 3.75452 14.7869 4.85746 11.5209 6.97602C8.25489 9.09459 5.69505 12.1331 4.16691 15.7051C2.63876 19.2771 2.21137 23.2212 2.93908 27.0358C3.66678 30.8505 5.51671 34.3633 8.2536 37.1276C10.9905 39.8919 14.4907 41.7828 18.3091 42.5598C22.1275 43.3368 26.0915 42.9647 29.6971 41.491C33.3027 40.0173 36.3869 37.5084 38.5576 34.2836C40.7283 31.0587 41.8873 27.2634 41.8873 23.3805C41.9217 18.2248 39.8996 13.2665 36.2655 9.59605C32.6314 5.92558 27.683 3.84343 22.5084 3.80749ZM22.5084 33.4285C20.5079 33.4557 18.5445 32.8895 16.8679 31.8019C15.1913 30.7143 13.8771 29.1544 13.0927 27.3207C12.3082 25.487 12.0888 23.4623 12.4624 21.504C12.836 19.5457 13.7856 17.7424 15.1906 16.3233C16.5956 14.9042 18.3925 13.9335 20.3527 13.5347C22.3129 13.1358 24.3479 13.3268 26.1988 14.0833C28.0498 14.8399 29.6331 16.1278 30.7474 17.7833C31.8618 19.4388 32.4568 21.3871 32.4568 23.3805C32.4741 26.0271 31.4359 28.5723 29.5704 30.4565C27.7049 32.3407 25.1647 33.4097 22.5084 33.4285Z" fill="white"/>
</mask>
<g mask="url(#mask16_1778_4441)">
<path d="M28.8282 16.7526C30.7722 16.7526 32.3481 15.161 32.3481 13.1976C32.3481 11.2342 30.7722 9.64258 28.8282 9.64258C26.8843 9.64258 25.3084 11.2342 25.3084 13.1976C25.3084 15.161 26.8843 16.7526 28.8282 16.7526Z" fill="#01A2FD"/>
</g>
<mask id="mask17_1778_4441" style="mask-type:luminance" maskUnits="userSpaceOnUse" x="2" y="3" width="40" height="40">
<path d="M22.5084 3.80749C18.6115 3.75452 14.7869 4.85746 11.5209 6.97602C8.25489 9.09459 5.69505 12.1331 4.16691 15.7051C2.63876 19.2771 2.21137 23.2212 2.93908 27.0358C3.66678 30.8505 5.51671 34.3633 8.2536 37.1276C10.9905 39.8919 14.4907 41.7828 18.3091 42.5598C22.1275 43.3368 26.0915 42.9647 29.6971 41.491C33.3027 40.0173 36.3869 37.5084 38.5576 34.2836C40.7283 31.0587 41.8873 27.2634 41.8873 23.3805C41.9217 18.2248 39.8996 13.2665 36.2655 9.59605C32.6314 5.92558 27.683 3.84343 22.5084 3.80749ZM22.5084 33.4285C20.5079 33.4557 18.5445 32.8895 16.8679 31.8019C15.1913 30.7143 13.8771 29.1544 13.0927 27.3207C12.3082 25.487 12.0888 23.4623 12.4624 21.504C12.836 19.5457 13.7856 17.7424 15.1906 16.3233C16.5956 14.9042 18.3925 13.9335 20.3527 13.5347C22.3129 13.1358 24.3479 13.3268 26.1988 14.0833C28.0498 14.8399 29.6331 16.1278 30.7474 17.7833C31.8618 19.4388 32.4568 21.3871 32.4568 23.3805C32.4741 26.0271 31.4359 28.5723 29.5704 30.4565C27.7049 32.3407 25.1647 33.4097 22.5084 33.4285Z" fill="white"/>
</mask>
<g mask="url(#mask17_1778_4441)">
<path d="M27.4235 11.4988C28.3609 11.4988 29.1207 10.7314 29.1207 9.7848C29.1207 8.83818 28.3609 8.0708 27.4235 8.0708C26.4862 8.0708 25.7263 8.83818 25.7263 9.7848C25.7263 10.7314 26.4862 11.4988 27.4235 11.4988Z" fill="#FEC401"/>
</g>
<mask id="mask18_1778_4441" style="mask-type:luminance" maskUnits="userSpaceOnUse" x="2" y="3" width="40" height="40">
<path d="M22.5084 3.80749C18.6115 3.75452 14.7869 4.85746 11.5209 6.97602C8.25489 9.09459 5.69505 12.1331 4.16691 15.7051C2.63876 19.2771 2.21137 23.2212 2.93908 27.0358C3.66678 30.8505 5.51671 34.3633 8.2536 37.1276C10.9905 39.8919 14.4907 41.7828 18.3091 42.5598C22.1275 43.3368 26.0915 42.9647 29.6971 41.491C33.3027 40.0173 36.3869 37.5084 38.5576 34.2836C40.7283 31.0587 41.8873 27.2634 41.8873 23.3805C41.9217 18.2248 39.8996 13.2665 36.2655 9.59605C32.6314 5.92558 27.683 3.84343 22.5084 3.80749ZM22.5084 33.4285C20.5079 33.4557 18.5445 32.8895 16.8679 31.8019C15.1913 30.7143 13.8771 29.1544 13.0927 27.3207C12.3082 25.487 12.0888 23.4623 12.4624 21.504C12.836 19.5457 13.7856 17.7424 15.1906 16.3233C16.5956 14.9042 18.3925 13.9335 20.3527 13.5347C22.3129 13.1358 24.3479 13.3268 26.1988 14.0833C28.0498 14.8399 29.6331 16.1278 30.7474 17.7833C31.8618 19.4388 32.4568 21.3871 32.4568 23.3805C32.4741 26.0271 31.4359 28.5723 29.5704 30.4565C27.7049 32.3407 25.1647 33.4097 22.5084 33.4285Z" fill="white"/>
</mask>
<g mask="url(#mask18_1778_4441)">
<path d="M23.0765 9.47343C24.2815 9.47343 25.2584 8.48667 25.2584 7.26943C25.2584 6.05219 24.2815 5.06543 23.0765 5.06543C21.8714 5.06543 20.8945 6.05219 20.8945 7.26943C20.8945 8.48667 21.8714 9.47343 23.0765 9.47343Z" fill="#014DAF"/>
</g>
<mask id="mask19_1778_4441" style="mask-type:luminance" maskUnits="userSpaceOnUse" x="2" y="3" width="40" height="40">
<path d="M22.5084 3.80749C18.6115 3.75452 14.7869 4.85746 11.5209 6.97602C8.25489 9.09459 5.69505 12.1331 4.16691 15.7051C2.63876 19.2771 2.21137 23.2212 2.93908 27.0358C3.66678 30.8505 5.51671 34.3633 8.2536 37.1276C10.9905 39.8919 14.4907 41.7828 18.3091 42.5598C22.1275 43.3368 26.0915 42.9647 29.6971 41.491C33.3027 40.0173 36.3869 37.5084 38.5576 34.2836C40.7283 31.0587 41.8873 27.2634 41.8873 23.3805C41.9217 18.2248 39.8996 13.2665 36.2655 9.59605C32.6314 5.92558 27.683 3.84343 22.5084 3.80749ZM22.5084 33.4285C20.5079 33.4557 18.5445 32.8895 16.8679 31.8019C15.1913 30.7143 13.8771 29.1544 13.0927 27.3207C12.3082 25.487 12.0888 23.4623 12.4624 21.504C12.836 19.5457 13.7856 17.7424 15.1906 16.3233C16.5956 14.9042 18.3925 13.9335 20.3527 13.5347C22.3129 13.1358 24.3479 13.3268 26.1988 14.0833C28.0498 14.8399 29.6331 16.1278 30.7474 17.7833C31.8618 19.4388 32.4568 21.3871 32.4568 23.3805C32.4741 26.0271 31.4359 28.5723 29.5704 30.4565C27.7049 32.3407 25.1647 33.4097 22.5084 33.4285Z" fill="white"/>
</mask>
<g mask="url(#mask19_1778_4441)">
<path d="M16.4397 17.2085C19.0256 17.2085 21.1218 15.0912 21.1218 12.4795C21.1218 9.86773 19.0256 7.75049 16.4397 7.75049C13.8538 7.75049 11.7576 9.86773 11.7576 12.4795C11.7576 15.0912 13.8538 17.2085 16.4397 17.2085Z" fill="#F97707"/>
</g>
<mask id="mask20_1778_4441" style="mask-type:luminance" maskUnits="userSpaceOnUse" x="2" y="3" width="40" height="40">
<path d="M22.5084 3.80749C18.6115 3.75452 14.7869 4.85746 11.5209 6.97602C8.25489 9.09459 5.69505 12.1331 4.16691 15.7051C2.63876 19.2771 2.21137 23.2212 2.93908 27.0358C3.66678 30.8505 5.51671 34.3633 8.2536 37.1276C10.9905 39.8919 14.4907 41.7828 18.3091 42.5598C22.1275 43.3368 26.0915 42.9647 29.6971 41.491C33.3027 40.0173 36.3869 37.5084 38.5576 34.2836C40.7283 31.0587 41.8873 27.2634 41.8873 23.3805C41.9217 18.2248 39.8996 13.2665 36.2655 9.59605C32.6314 5.92558 27.683 3.84343 22.5084 3.80749ZM22.5084 33.4285C20.5079 33.4557 18.5445 32.8895 16.8679 31.8019C15.1913 30.7143 13.8771 29.1544 13.0927 27.3207C12.3082 25.487 12.0888 23.4623 12.4624 21.504C12.836 19.5457 13.7856 17.7424 15.1906 16.3233C16.5956 14.9042 18.3925 13.9335 20.3527 13.5347C22.3129 13.1358 24.3479 13.3268 26.1988 14.0833C28.0498 14.8399 29.6331 16.1278 30.7474 17.7833C31.8618 19.4388 32.4568 21.3871 32.4568 23.3805C32.4741 26.0271 31.4359 28.5723 29.5704 30.4565C27.7049 32.3407 25.1647 33.4097 22.5084 33.4285Z" fill="white"/>
</mask>
<g mask="url(#mask20_1778_4441)">
<path d="M14.8839 10.6713C17.4465 10.6713 19.5239 8.57332 19.5239 5.98532C19.5239 3.39731 17.4465 1.29932 14.8839 1.29932C12.3213 1.29932 10.2439 3.39731 10.2439 5.98532C10.2439 8.57332 12.3213 10.6713 14.8839 10.6713Z" fill="#01A2FD"/>
</g>
</g>
<defs>
<filter id="filter0_dd_1778_4441" x="-0.406479" y="0" width="45.2942" height="46.9556" filterUnits="userSpaceOnUse" color-interpolation-filters="sRGB">
<feFlood flood-opacity="0" result="BackgroundImageFix"/>
<feColorMatrix in="SourceAlpha" type="matrix" values="0 0 0 0 0 0 0 0 0 0 0 0 0 0 0 0 0 0 127 0" result="hardAlpha"/>
<feOffset dy="1"/>
<feGaussianBlur stdDeviation="1"/>
<feColorMatrix type="matrix" values="0 0 0 0 0.0627451 0 0 0 0 0.0941176 0 0 0 0 0.156863 0 0 0 0.06 0"/>
<feBlend mode="normal" in2="BackgroundImageFix" result="effect1_dropShadow_1778_4441"/>
<feColorMatrix in="SourceAlpha" type="matrix" values="0 0 0 0 0 0 0 0 0 0 0 0 0 0 0 0 0 0 127 0" result="hardAlpha"/>
<feOffset dy="1"/>
<feGaussianBlur stdDeviation="1.5"/>
<feColorMatrix type="matrix" values="0 0 0 0 0.0627451 0 0 0 0 0.0941176 0 0 0 0 0.156863 0 0 0 0.1 0"/>
<feBlend mode="normal" in2="effect1_dropShadow_1778_4441" result="effect2_dropShadow_1778_4441"/>
<feBlend mode="normal" in="SourceGraphic" in2="effect2_dropShadow_1778_4441" result="shape"/>
</filter>
</defs>
</svg>
