<svg xmlns="http://www.w3.org/2000/svg" width="15.977" height="19.972" viewBox="0 0 15.977 19.972">
  <!-- Shield background - Yellow for UnActivated -->
  <path d="M15.989,23.922a9.8,9.8,0,0,1-5.742-4.057A11.84,11.84,0,0,1,8,12.887V6.946l7.989-3,7.989,3v5.942a11.84,11.84,0,0,1-2.247,6.978A9.8,9.8,0,0,1,15.989,23.922Z" transform="translate(-8 -3.95)" fill="#E9B824"/>
  <!-- Left arc from 12 o'clock to 6 o'clock (radius 4) centered at y=10 -->
  <path d="M8 6 A4 4 0 0 0 8 14" fill="none" stroke="#fff" stroke-width="1.3" stroke-linecap="round"/>
  <!-- Center circle -->
  <circle cx="8" cy="10" r="1.2" fill="#fff"/>
  <!-- Clock hand pointing to 10 o'clock -->
  <line x1="8" y1="10" x2="6.25" y2="8.25" stroke="#fff" stroke-width="1.3" stroke-linecap="round"/>
  <!-- Right side 5 dots from 1 o'clock to 5 o'clock (radius 4) centered at y=10 -->
  <circle cx="10" cy="6.54" r="0.7" fill="#fff"/>
  <circle cx="11.46" cy="8" r="0.7" fill="#fff"/>
  <circle cx="12" cy="10" r="0.7" fill="#fff"/>
  <circle cx="11.46" cy="12" r="0.7" fill="#fff"/>
  <circle cx="10" cy="13.46" r="0.7" fill="#fff"/>
</svg>
